<?xml version="1.0" encoding="UTF-8" ?>
<svg viewBox="0 0 512 512" version="1.1" xmlns="http://www.w3.org/2000/svg">
    <g id="#007bffff">
        <path fill="#007bff" opacity="1.00"
              d=" M 9.84 70.86 C 18.37 59.93 32.07 53.35 45.93 53.48 C 99.29 53.43 152.64 53.50 206.00 53.45 C 209.00 53.53 212.11 53.12 215.03 53.98 C 218.18 55.70 220.05 58.98 222.42 61.57 C 234.68 76.00 246.64 90.69 259.08 104.97 C 328.06 105.05 397.05 104.97 466.04 105.01 C 475.98 104.92 485.90 108.15 493.81 114.18 C 504.16 121.79 510.49 133.96 512.00 146.61 L 512.00 403.41 C 510.94 415.48 505.32 427.15 496.01 435.00 C 489.04 441.00 480.20 444.79 471.05 445.68 C 466.04 446.17 461.01 445.97 456.00 446.00 C 323.00 446.00 190.00 446.00 57.00 446.00 C 50.54 445.94 44.03 446.33 37.64 445.23 C 24.25 442.94 12.17 434.24 5.68 422.33 C 2.40 416.54 0.74 410.00 0.00 403.44 L 0.00 95.59 C 1.03 86.67 4.14 77.89 9.84 70.86 Z"/>
    </g>
</svg>
