<?xml version="1.0" encoding="UTF-8" ?>
<svg viewBox="0 0 512 512" version="1.1" xmlns="http://www.w3.org/2000/svg">
    <g id="#007bffff">
        <path fill="#007bff" opacity="1.00"
              d=" M 0.00 80.69 C 0.22 64.54 15.05 50.95 30.99 51.04 C 71.66 50.97 112.33 51.00 153.00 51.02 C 163.06 50.98 173.05 55.84 178.96 64.04 C 190.23 79.65 201.34 95.39 212.61 111.00 C 275.09 111.02 337.57 110.96 400.05 111.03 C 415.75 110.89 430.55 124.04 431.08 139.96 C 431.29 154.12 431.11 168.29 431.16 182.46 C 324.50 182.48 217.83 182.44 111.17 182.48 C 95.16 182.41 79.32 191.83 72.51 206.44 C 48.34 257.13 24.13 307.80 0.00 358.51 L 0.00 80.69 Z"/>
        <path fill="#007bff" opacity="1.00"
              d=" M 91.02 234.95 C 97.86 220.76 113.28 211.54 128.94 211.48 C 241.97 211.45 355.00 211.49 468.03 211.46 C 474.47 211.32 480.96 212.47 486.89 215.04 C 501.07 220.92 511.34 235.20 512.00 250.60 L 512.00 254.16 C 511.61 259.88 510.10 265.50 507.48 270.60 C 482.86 319.94 458.24 369.28 433.63 418.62 C 431.10 423.61 428.85 428.84 425.20 433.15 C 417.67 442.38 405.95 447.99 394.03 447.99 C 274.35 448.02 154.68 447.98 35.01 448.01 C 19.82 449.24 4.46 438.96 0.84 423.98 C 30.92 360.98 60.93 297.95 91.02 234.95 Z"/>
    </g>
</svg>
